<mxfile host="Electron" modified="2023-05-09T02:56:30.245Z" agent="Mozilla/5.0 (Windows NT 10.0; Win64; x64) AppleWebKit/537.36 (KHTML, like Gecko) draw.io/21.1.2 Chrome/106.0.5249.199 Electron/21.4.3 Safari/537.36" etag="Tfp1g5tLtP7McF7VZPl-" version="21.1.2" type="device">
  <diagram name="第 1 页" id="tl9_q8l0X8SyvnyOfBYp">
    <mxGraphModel dx="1036" dy="614" grid="1" gridSize="10" guides="1" tooltips="1" connect="1" arrows="1" fold="1" page="1" pageScale="1" pageWidth="583" pageHeight="827" math="0" shadow="0">
      <root>
        <mxCell id="0" />
        <mxCell id="1" parent="0" />
        <mxCell id="AXvb8WzQYOFzVX9tKs6P-1" value="接口优化方案" style="rounded=0;whiteSpace=wrap;html=1;" vertex="1" parent="1">
          <mxGeometry x="240" y="240" width="120" height="40" as="geometry" />
        </mxCell>
        <mxCell id="AXvb8WzQYOFzVX9tKs6P-21" style="rounded=0;orthogonalLoop=1;jettySize=auto;html=1;exitX=1;exitY=0.5;exitDx=0;exitDy=0;entryX=0;entryY=0.5;entryDx=0;entryDy=0;" edge="1" parent="1" source="AXvb8WzQYOFzVX9tKs6P-2" target="AXvb8WzQYOFzVX9tKs6P-1">
          <mxGeometry relative="1" as="geometry" />
        </mxCell>
        <mxCell id="AXvb8WzQYOFzVX9tKs6P-2" value="异步处理" style="rounded=0;whiteSpace=wrap;html=1;" vertex="1" parent="1">
          <mxGeometry x="120" y="200" width="80" height="40" as="geometry" />
        </mxCell>
        <mxCell id="AXvb8WzQYOFzVX9tKs6P-22" style="rounded=0;orthogonalLoop=1;jettySize=auto;html=1;exitX=1;exitY=0.5;exitDx=0;exitDy=0;" edge="1" parent="1" source="AXvb8WzQYOFzVX9tKs6P-4">
          <mxGeometry relative="1" as="geometry">
            <mxPoint x="240" y="260" as="targetPoint" />
          </mxGeometry>
        </mxCell>
        <mxCell id="AXvb8WzQYOFzVX9tKs6P-4" value="空间换时间" style="rounded=0;whiteSpace=wrap;html=1;" vertex="1" parent="1">
          <mxGeometry x="120" y="280" width="80" height="40" as="geometry" />
        </mxCell>
        <mxCell id="AXvb8WzQYOFzVX9tKs6P-23" style="rounded=0;orthogonalLoop=1;jettySize=auto;html=1;exitX=1;exitY=0;exitDx=0;exitDy=0;entryX=0;entryY=1;entryDx=0;entryDy=0;" edge="1" parent="1" source="AXvb8WzQYOFzVX9tKs6P-5" target="AXvb8WzQYOFzVX9tKs6P-1">
          <mxGeometry relative="1" as="geometry" />
        </mxCell>
        <mxCell id="AXvb8WzQYOFzVX9tKs6P-5" value="池化死信" style="rounded=0;whiteSpace=wrap;html=1;" vertex="1" parent="1">
          <mxGeometry x="120" y="360" width="80" height="40" as="geometry" />
        </mxCell>
        <mxCell id="AXvb8WzQYOFzVX9tKs6P-18" style="rounded=0;orthogonalLoop=1;jettySize=auto;html=1;exitX=0;exitY=1;exitDx=0;exitDy=0;entryX=1;entryY=0;entryDx=0;entryDy=0;" edge="1" parent="1" source="AXvb8WzQYOFzVX9tKs6P-6" target="AXvb8WzQYOFzVX9tKs6P-1">
          <mxGeometry relative="1" as="geometry" />
        </mxCell>
        <mxCell id="AXvb8WzQYOFzVX9tKs6P-6" value="锁粒度过粗" style="rounded=0;whiteSpace=wrap;html=1;" vertex="1" parent="1">
          <mxGeometry x="400" y="120" width="80" height="40" as="geometry" />
        </mxCell>
        <mxCell id="AXvb8WzQYOFzVX9tKs6P-15" style="rounded=0;orthogonalLoop=1;jettySize=auto;html=1;exitX=1;exitY=1;exitDx=0;exitDy=0;entryX=0;entryY=0;entryDx=0;entryDy=0;" edge="1" parent="1" source="AXvb8WzQYOFzVX9tKs6P-7" target="AXvb8WzQYOFzVX9tKs6P-1">
          <mxGeometry relative="1" as="geometry" />
        </mxCell>
        <mxCell id="AXvb8WzQYOFzVX9tKs6P-7" value="批处理" style="rounded=0;whiteSpace=wrap;html=1;" vertex="1" parent="1">
          <mxGeometry x="120" y="120" width="80" height="40" as="geometry" />
        </mxCell>
        <mxCell id="AXvb8WzQYOFzVX9tKs6P-19" style="rounded=0;orthogonalLoop=1;jettySize=auto;html=1;exitX=0;exitY=0.5;exitDx=0;exitDy=0;entryX=1;entryY=0.5;entryDx=0;entryDy=0;" edge="1" parent="1" source="AXvb8WzQYOFzVX9tKs6P-8" target="AXvb8WzQYOFzVX9tKs6P-1">
          <mxGeometry relative="1" as="geometry" />
        </mxCell>
        <mxCell id="AXvb8WzQYOFzVX9tKs6P-8" value="sql优化" style="rounded=0;whiteSpace=wrap;html=1;" vertex="1" parent="1">
          <mxGeometry x="400" y="200" width="80" height="40" as="geometry" />
        </mxCell>
        <mxCell id="AXvb8WzQYOFzVX9tKs6P-20" style="rounded=0;orthogonalLoop=1;jettySize=auto;html=1;exitX=0;exitY=0.5;exitDx=0;exitDy=0;" edge="1" parent="1" source="AXvb8WzQYOFzVX9tKs6P-9">
          <mxGeometry relative="1" as="geometry">
            <mxPoint x="360" y="260" as="targetPoint" />
          </mxGeometry>
        </mxCell>
        <mxCell id="AXvb8WzQYOFzVX9tKs6P-9" value="深分页问题" style="rounded=0;whiteSpace=wrap;html=1;" vertex="1" parent="1">
          <mxGeometry x="400" y="280" width="80" height="40" as="geometry" />
        </mxCell>
        <mxCell id="AXvb8WzQYOFzVX9tKs6P-26" style="rounded=0;orthogonalLoop=1;jettySize=auto;html=1;exitX=0;exitY=0;exitDx=0;exitDy=0;entryX=1;entryY=1;entryDx=0;entryDy=0;" edge="1" parent="1" source="AXvb8WzQYOFzVX9tKs6P-10" target="AXvb8WzQYOFzVX9tKs6P-1">
          <mxGeometry relative="1" as="geometry" />
        </mxCell>
        <mxCell id="AXvb8WzQYOFzVX9tKs6P-10" value="优化程序结构" style="rounded=0;whiteSpace=wrap;html=1;" vertex="1" parent="1">
          <mxGeometry x="400" y="360" width="80" height="40" as="geometry" />
        </mxCell>
        <mxCell id="AXvb8WzQYOFzVX9tKs6P-16" value="" style="rounded=0;orthogonalLoop=1;jettySize=auto;html=1;" edge="1" parent="1" source="AXvb8WzQYOFzVX9tKs6P-11" target="AXvb8WzQYOFzVX9tKs6P-1">
          <mxGeometry relative="1" as="geometry" />
        </mxCell>
        <mxCell id="AXvb8WzQYOFzVX9tKs6P-11" value="预处理" style="rounded=0;whiteSpace=wrap;html=1;" vertex="1" parent="1">
          <mxGeometry x="220" y="120" width="80" height="40" as="geometry" />
        </mxCell>
        <mxCell id="AXvb8WzQYOFzVX9tKs6P-17" value="" style="rounded=0;orthogonalLoop=1;jettySize=auto;html=1;" edge="1" parent="1" source="AXvb8WzQYOFzVX9tKs6P-12" target="AXvb8WzQYOFzVX9tKs6P-1">
          <mxGeometry relative="1" as="geometry" />
        </mxCell>
        <mxCell id="AXvb8WzQYOFzVX9tKs6P-12" value="串行改并行" style="rounded=0;whiteSpace=wrap;html=1;" vertex="1" parent="1">
          <mxGeometry x="310" y="120" width="80" height="40" as="geometry" />
        </mxCell>
        <mxCell id="AXvb8WzQYOFzVX9tKs6P-24" style="rounded=0;orthogonalLoop=1;jettySize=auto;html=1;exitX=0.5;exitY=0;exitDx=0;exitDy=0;" edge="1" parent="1" source="AXvb8WzQYOFzVX9tKs6P-13" target="AXvb8WzQYOFzVX9tKs6P-1">
          <mxGeometry relative="1" as="geometry">
            <mxPoint x="300" y="280" as="targetPoint" />
          </mxGeometry>
        </mxCell>
        <mxCell id="AXvb8WzQYOFzVX9tKs6P-13" value="索引" style="rounded=0;whiteSpace=wrap;html=1;" vertex="1" parent="1">
          <mxGeometry x="220" y="360" width="80" height="40" as="geometry" />
        </mxCell>
        <mxCell id="AXvb8WzQYOFzVX9tKs6P-25" style="rounded=0;orthogonalLoop=1;jettySize=auto;html=1;exitX=0.5;exitY=0;exitDx=0;exitDy=0;entryX=0.563;entryY=0.98;entryDx=0;entryDy=0;entryPerimeter=0;" edge="1" parent="1" source="AXvb8WzQYOFzVX9tKs6P-14" target="AXvb8WzQYOFzVX9tKs6P-1">
          <mxGeometry relative="1" as="geometry">
            <mxPoint x="300" y="280" as="targetPoint" />
          </mxGeometry>
        </mxCell>
        <mxCell id="AXvb8WzQYOFzVX9tKs6P-14" value="避免大事务" style="rounded=0;whiteSpace=wrap;html=1;" vertex="1" parent="1">
          <mxGeometry x="310" y="360" width="80" height="40" as="geometry" />
        </mxCell>
      </root>
    </mxGraphModel>
  </diagram>
</mxfile>
